PathFileType	3	(X/Y/Z)	D:\minhoCalibration\240510\subject4_KPNP\preferred\preferred18.trc
DataRate	CameraRate	NumFrames	NumMarkers	Units	OrigDataRate	OrigDataStartFrame	OrigNumFrames
200.0	200.0	22	10	mm	200.0	243	95	
Frame#	Time	Left_Ankle_Outer1			Left_Ankle_Inner1			Left_Knee_Outer1			Left_Knee_Inner1			Left_Wrist1			Right_Wrist1			Right_Knee_Inner1			Right_Knee_Outer1			Right_Ankle_Inner1			Right_Ankle_Outer1			
		X1	Y1	Z1	X2	Y2	Z2	X3	Y3	Z3	X4	Y4	Z4	X5	Y5	Z5	X6	Y6	Z6	X7	Y7	Z7	X8	Y8	Z8	X9	Y9	Z9	X10	Y10	Z10	
243	1.205	-592.50867	353.37296	1517.5321	-530.07391	307.14563	1447.6696	-757.80469	601.23529	1102.6963	-658.1402	562.62592	1064.6294	-612.81561	1020.0997	1247.7865	-295.25314	898.76831	1361.7681	-393.97473	503.20447	1111.4258	-315.76663	501.62595	1189.9344	-551.11121	59.65398	1249.1519	-505.9859	68.11821	1284.3499
244	1.21	-594.80359	363.19162	1496.5507	-531.31506	317.4079	1427.2711	-753.39264	613.75861	1081.5814	-652.09955	576.08203	1044.6323	-608.36627	1027.9519	1240.3405	-295.92465	901.09119	1363.0405	-393.56995	504.25464	1114.0424	-316.2518	503.03107	1193.0779	-550.64044	60.46236	1249.7424	-505.43643	68.941055	1285.0774
245	1.215	-597.84998	373.28494	1475.7571	-533.0097	328.14529	1407.3477	-748.37372	626.88776	1060.5688	-645.99585	589.87701	1025.0109	-603.4552	1035.5088	1233.0839	-296.23691	903.90973	1364.6564	-393.24561	505.33521	1116.4141	-316.85434	504.62918	1196.3145	-549.71887	61.025959	1249.887	-505.06259	69.888268	1285.8956
246	1.22	-601.6106	383.64066	1455.132	-535.211	339.28583	1387.9294	-743.08459	640.81909	1039.486	-638.85077	604.16071	1005.6355	-598.40387	1043.0875	1226.0079	-297.19016	906.85114	1366.2239	-393.82462	506.1311	1119.295	-317.50565	506.30521	1199.517	-549.10065	62.010715	1250.5103	-504.15863	69.980034	1285.7537
247	1.225	-606.2887	394.35733	1434.7368	-537.83209	350.77209	1368.9165	-736.41974	654.82196	1018.7288	-631.48254	618.93243	987.04163	-593.25281	1050.7009	1219.2236	-298.22943	909.18872	1367.5868	-393.60562	507.62665	1121.4551	-318.20486	508.14801	1202.5795	-548.44794	62.927925	1250.9238	-503.94614	70.620567	1286.4348
248	1.23	-611.63837	405.35037	1414.3046	-540.8725	362.03601	1350.3617	-728.82159	669.31677	997.77271	-622.7738	634.06781	968.55347	-587.8772	1058.2649	1212.5864	-299.58694	911.82245	1369.1116	-393.52649	508.60352	1123.3358	-318.95117	509.93372	1205.6235	-547.04865	63.39822	1250.4069	-503.76392	71.526154	1286.4443
249	1.235	-617.64514	416.83002	1393.9858	-544.56073	374.48019	1332.2195	-720.43695	684.3493	977.21259	-615.10608	649.00592	951.90161	-582.46106	1065.751	1206.2432	-301.06021	914.36761	1370.6204	-393.01114	510.06412	1125.2208	-319.69193	511.99435	1208.4731	-546.64459	64.803108	1250.5732	-503.37558	72.616585	1286.8232
250	1.24	-624.2691	428.80875	1373.8545	-548.26404	387.28052	1314.8309	-711.48285	700.06024	956.79089	-604.52283	665.1474	933.9483	-577.02496	1073.2266	1200.092	-302.59079	916.84637	1372.0601	-392.86212	511.33673	1126.9517	-320.11322	513.97192	1211.3999	-546.20032	66.234894	1250.6373	-503.24701	74.244659	1287.5696
251	1.245	-631.04285	441.401	1353.6089	-553.42041	399.82968	1297.176	-701.54712	716.1153	936.38397	-594.1593	680.46875	917.0271	-571.50415	1080.5193	1194.1987	-304.21002	919.26685	1373.4504	-392.42065	512.8551	1128.4774	-320.55432	516.01843	1214.0028	-545.81781	67.659218	1250.3105	-503.0802	75.75708	1287.6204
252	1.25	-638.22046	454.87317	1333.65	-558.90656	413.09979	1279.9301	-690.87018	732.96704	916.7193	-583.06311	696.48621	901.80884	-565.883	1087.6643	1188.5597	-305.82523	921.57916	1374.7307	-391.98697	514.44598	1129.9402	-320.84351	517.97406	1216.2887	-545.6485	69.809647	1250.2407	-503.01599	76.900871	1286.9834
253	1.255	-645.77612	468.6962	1313.4833	-565.06073	426.29898	1262.6182	-678.948	750.21606	897.47137	-570.88495	712.73822	886.61694	-560.26038	1094.667	1183.0858	-307.50916	923.85431	1376.0111	-390.76065	516.25531	1130.7773	-321.03384	520.0614	1218.3846	-545.8125	71.460457	1249.5387	-503.55017	78.630692	1287.021
254	1.26	-653.84656	483.48492	1293.5753	-571.8916	439.92383	1245.6168	-666.34772	767.79565	878.94598	-558.16083	728.76819	872.3017	-554.68182	1101.8107	1177.851	-309.34872	925.94128	1377.2489	-387.95087	517.74579	1130.3225	-320.94479	522.15259	1220.3719	-545.55304	73.036934	1248.1224	-503.95667	80.593269	1286.6638
255	1.265	-661.92395	498.53192	1273.4529	-579.2179	454.25101	1229.4327	-652.75903	785.77466	861.13379	-544.81915	744.4137	858.87775	-548.93085	1108.6702	1172.9583	-311.51419	927.71234	1378.5164	-387.22198	519.5788	1131.8997	-320.90121	524.16571	1221.984	-545.1604	74.946442	1246.5541	-504.56244	82.340149	1285.8948
256	1.27	-671.02515	514.57416	1253.2574	-587.39856	468.80597	1212.6953	-638.0603	803.52203	844.07788	-531.02924	760.30438	846.50153	-543.18988	1115.4624	1168.4417	-313.89935	929.20032	1379.6825	-384.68951	521.08551	1131.7007	-320.61929	526.16956	1223.5813	-544.72772	77.300797	1244.9309	-505.36722	84.342102	1285.2521
257	1.275	-680.6344	531.38348	1232.7452	-596.47406	483.82709	1195.9923	-622.42761	821.76495	827.974	-516.0116	775.74615	834.45197	-536.87762	1121.9301	1163.764	-316.90277	930.43469	1381.5175	-382.26013	523.00555	1132.2294	-320.22714	528.10364	1225.2363	-545.26312	79.805069	1243.6212	-505.97083	86.425446	1284.0336
258	1.28	-690.59473	548.84253	1211.8914	-606.07703	499.3161	1178.9136	-606.20703	839.85773	812.9118	-501.95651	790.11426	824.07568	-530.42236	1128.2517	1159.1516	-320.24374	931.41071	1382.7894	-379.99106	524.76306	1132.7916	-319.60324	529.97223	1226.8245	-544.96051	81.54287	1241.12	-506.72226	88.564011	1282.752
259	1.285	-700.95569	567.28687	1190.839	-615.90405	515.82446	1161.8477	-589.46613	857.82776	799.15491	-486.88467	804.9267	814.53326	-524.19379	1134.6165	1155.1576	-323.93967	932.09113	1384.1936	-375.79037	525.99481	1131.9406	-319.23395	531.94	1228.3052	-545.49524	85.191154	1239.585	-507.61313	90.658875	1281.1974
260	1.29	-711.22504	586.33826	1169.1375	-626.39087	533.04236	1144.7645	-571.21246	875.57861	786.28516	-472.06784	818.74927	805.81396	-517.50629	1140.9517	1151.0815	-328.05493	932.75366	1385.2026	-372.35913	527.69055	1132.7776	-318.63391	533.81317	1230.0676	-545.72369	87.309372	1236.8881	-508.62872	92.766975	1279.5352
261	1.295	-721.91711	606.30792	1147.1647	-638.10333	550.09528	1126.583	-552.82831	892.30786	775.64874	-457.41739	831.9223	798.28876	-512.82111	1146.1372	1149.4142	-333.06534	932.97028	1387.6823	-368.30219	529.16205	1132.8257	-318.19348	535.64655	1231.7059	-545.21039	89.492729	1234.4264	-509.69571	94.903709	1277.8633
262	1.3	-732.37091	627.26904	1124.2916	-649.69067	567.93933	1107.6035	-534.70563	909.33698	765.25891	-442.37396	844.54749	791.47333	-504.59601	1153.1589	1144.3528	-338.01389	933.06445	1388.6552	-363.91013	530.3573	1132.7153	-317.65018	537.33362	1233.6605	-546.0578	92.376869	1231.453	-510.60785	97.017021	1276.054
263	1.305	-742.82697	649.1037	1100.8362	-661.86407	586.27533	1087.8337	-515.37634	925.54724	757.06952	-427.09558	856.50739	785.70599	-498.28595	1158.7915	1141.8508	-343.67712	932.92969	1389.8455	-359.4241	531.55579	1133.2885	-317.36621	538.97266	1235.5996	-545.29901	94.604042	1228.9196	-511.35773	99.037506	1274.1396
264	1.31	-752.53253	671.35577	1076.3892	-673.65845	605.78894	1066.5375	-495.99442	941.48529	750.40997	-412.09158	867.68713	780.74738	-491.94281	1164.2017	1139.5038	-349.90247	932.19788	1389.4285	-355.27179	533.08502	1134.134	-317.25262	540.74316	1237.5217	-544.88831	96.881149	1225.8064	-511.9729	101.12544	1272.2566
